# xmcd
#
# Track frame offsets:
#	150
#	21293
#	32901
#	48194
#	68471
#	85680
#	103468
#	125299
#	143778
#	159851
#	175415
#	193884
#
# Disc length: 2881 seconds
# Revision: 0
# Processed by: cddbd v1.5.2PL0 Copyright (c) Steve Scherf et al.
# Submitted via: dBpowerAMP V12.0
#
DISCID=9d0b3f0c
DTITLE=Blue Shaddy - Across The Road
DYEAR=2011
DGENRE=Blues
TTITLE0=Won't Bring Me Down
TTITLE1=Wasting Time
TTITLE2=Six Strings
TTITLE3=Feet Back On The Ground
TTITLE4=Discobilly
TTITLE5=Chain Gang
TTITLE6=So Long
TTITLE7=Across The Road
TTITLE8=Road Under My Wheels
TTITLE9=Never Going Home
TTITLE10=Packed Nose
TTITLE11=Walk With Me
EXTD=
EXTT0=
EXTT1=
EXTT2=
EXTT3=
EXTT4=
EXTT5=
EXTT6=
EXTT7=
EXTT8=
EXTT9=
EXTT10=
EXTT11=
PLAYORDER=
